<svg xmlns="http://www.w3.org/2000/svg" viewBox="0 0 512 512"><path d="M427.155 206l37.772-94.429A14.999 14.999 0 00451 91H261c-8.284 0-15 6.716-15 15v135h-35c-8.284 0-15 6.716-15 15v50c0 8.284 6.716 15 15 15h240a15 15 0 0013.927-20.571L427.155 206z" fill="#fc495c"/><path d="M210.997 321A15 15 0 01196 306v-50c0-8.284 6.716-15 15-15h50a15.002 15.002 0 0110.606 25.607l-50 50A14.993 14.993 0 01210.997 321z" fill="#d12657"/><path d="M261 41H61c-8.284 0-15 6.716-15 15v200c0 8.284 6.716 15 15 15h200c8.284 0 15-6.716 15-15V56c0-8.284-6.716-15-15-15z" fill="#fd6b82"/><path d="M61 512c-8.284 0-15-6.716-15-15V15c0-8.284 6.716-15 15-15s15 6.716 15 15v482c0 8.284-6.716 15-15 15z" fill="#a4b0be"/></svg>